<svg xmlns="http://www.w3.org/2000/svg" width="753.954" height="756" viewBox="0 0 753.954 756">
  <path id="pokebola" d="M338.329,754.049a377.441,377.441,0,0,1-337.4-337.4C.6,413.461.318,410.215.075,407H172.937c14.069,101.477,102,178,204.541,178s190.472-76.523,204.54-178H753.88c-.245,3.228-.533,6.474-.855,9.649a377.441,377.441,0,0,1-337.4,337.4,383.742,383.742,0,0,1-77.3,0ZM230.978,378.5c0-83.119,65.59-150.5,146.5-150.5s146.5,67.381,146.5,150.5S458.387,529,377.477,529,230.978,461.619,230.978,378.5ZM172.936,350H0c.26-3.562.573-7.144.929-10.649a377.441,377.441,0,0,1,337.4-337.4,383.737,383.737,0,0,1,77.3,0,377.429,377.429,0,0,1,337.4,337.4c.357,3.516.67,7.1.929,10.648H582.018c-14.069-101.477-102-178-204.54-178s-190.472,76.523-204.54,178h0Z" fill="#fff"/>
</svg>
